<svg xmlns="http://www.w3.org/2000/svg"  viewBox="0 0 64 64" width="64px" height="64px"><linearGradient id="0QsINg2dXUJ2sgMWOelW1a" x1="32" x2="32" y1="565" y2="509.988" gradientTransform="matrix(1 0 0 -1 0 570)" gradientUnits="userSpaceOnUse" spreadMethod="reflect"><stop offset="0" stop-color="#1a6dff"/><stop offset="1" stop-color="#c822ff"/></linearGradient><path fill="url(#0QsINg2dXUJ2sgMWOelW1a)" d="M51.121,15.707l-8.828-8.828C41.727,6.313,40.973,6,40.171,6H15c-1.654,0-3,1.346-3,3v40v2v4 c0,1.654,1.346,3,3,3h34c1.654,0,3-1.346,3-3v-4v-2V17.828C52,17.027,51.688,16.273,51.121,15.707z M48.586,16H43 c-0.551,0-1-0.448-1-1V9.414L48.586,16z M49,56H15c-0.551,0-1-0.448-1-1v-1.185C14.314,53.928,14.648,54,15,54h34 c0.352,0,0.686-0.072,1-0.184V55C50,55.552,49.551,56,49,56z M50,51c0,0.552-0.449,1-1,1H15c-0.551,0-1-0.448-1-1v-2V9 c0-0.552,0.449-1,1-1h25v7c0,1.654,1.346,3,3,3h7v31V51z"/><linearGradient id="0QsINg2dXUJ2sgMWOelW1b" x1="23.75" x2="23.75" y1="29" y2="39" gradientUnits="userSpaceOnUse" spreadMethod="reflect"><stop offset="0" stop-color="#6dc7ff"/><stop offset="1" stop-color="#e6abff"/></linearGradient><path fill="url(#0QsINg2dXUJ2sgMWOelW1b)" d="M26,39h-3c-1.105,0-2-0.895-2-2v-6c0-1.105,0.895-2,2-2h3c0.276,0,0.5,0.224,0.5,0.5v1 c0,0.276-0.224,0.5-0.5,0.5h-2.5c-0.276,0-0.5,0.224-0.5,0.5v5c0,0.276,0.224,0.5,0.5,0.5H26c0.276,0,0.5,0.224,0.5,0.5v1 C26.5,38.776,26.276,39,26,39z"/><linearGradient id="0QsINg2dXUJ2sgMWOelW1c" x1="32" x2="32" y1="29" y2="39" gradientUnits="userSpaceOnUse" spreadMethod="reflect"><stop offset="0" stop-color="#6dc7ff"/><stop offset="1" stop-color="#e6abff"/></linearGradient><path fill="url(#0QsINg2dXUJ2sgMWOelW1c)" d="M33,39h-3.5c-0.276,0-0.5-0.224-0.5-0.5v-1c0-0.276,0.224-0.5,0.5-0.5H33v-2h-2 c-1.105,0-2-0.895-2-2v-2c0-1.105,0.895-2,2-2h2.5c0.276,0,0.5,0.224,0.5,0.5v1c0,0.276-0.224,0.5-0.5,0.5H31v2h2 c1.105,0,2,0.895,2,2v2C35,38.105,34.105,39,33,39z"/><linearGradient id="0QsINg2dXUJ2sgMWOelW1d" x1="40" x2="40" y1="29" y2="39" gradientUnits="userSpaceOnUse" spreadMethod="reflect"><stop offset="0" stop-color="#6dc7ff"/><stop offset="1" stop-color="#e6abff"/></linearGradient><path fill="url(#0QsINg2dXUJ2sgMWOelW1d)" d="M41,39h-3.5c-0.276,0-0.5-0.224-0.5-0.5v-1c0-0.276,0.224-0.5,0.5-0.5H41v-2h-2 c-1.105,0-2-0.895-2-2v-2c0-1.105,0.895-2,2-2h2.5c0.276,0,0.5,0.224,0.5,0.5v1c0,0.276-0.224,0.5-0.5,0.5H39v2h2 c1.105,0,2,0.895,2,2v2C43,38.105,42.105,39,41,39z"/></svg>