<svg xmlns="http://www.w3.org/2000/svg"  viewBox="0 0 64 64" width="64px" height="64px"><linearGradient id="bojF~LeMmSINCzJ6sI7Apa" x1="32" x2="32" y1="1237" y2="1181.987" gradientTransform="matrix(1 0 0 -1 0 1242)" gradientUnits="userSpaceOnUse" spreadMethod="reflect"><stop offset="0" stop-color="#1a6dff"/><stop offset="1" stop-color="#c822ff"/></linearGradient><path fill="url(#bojF~LeMmSINCzJ6sI7Apa)" d="M51.121,15.707l-8.828-8.828C41.727,6.313,40.973,6,40.171,6H15c-1.654,0-3,1.346-3,3v40v2v4 c0,1.654,1.346,3,3,3h34c1.654,0,3-1.346,3-3v-4v-2V17.828C52,17.027,51.688,16.273,51.121,15.707z M48.586,16H43 c-0.551,0-1-0.448-1-1V9.414L48.586,16z M49,56H15c-0.551,0-1-0.448-1-1v-1.185C14.314,53.928,14.648,54,15,54h34 c0.352,0,0.686-0.072,1-0.184V55C50,55.552,49.551,56,49,56z M50,51c0,0.552-0.449,1-1,1H15c-0.551,0-1-0.448-1-1v-2V9 c0-0.552,0.449-1,1-1h25v7c0,1.654,1.346,3,3,3h7v31V51z"/><linearGradient id="bojF~LeMmSINCzJ6sI7Apb" x1="27" x2="27" y1="29" y2="39" gradientUnits="userSpaceOnUse" spreadMethod="reflect"><stop offset="0" stop-color="#6dc7ff"/><stop offset="1" stop-color="#e6abff"/></linearGradient><path fill="url(#bojF~LeMmSINCzJ6sI7Apb)" d="M24,29.5v1c0,0.276,0.224,0.5,0.5,0.5H26v7.5c0,0.276,0.224,0.5,0.5,0.5h1 c0.276,0,0.5-0.224,0.5-0.5V31h1.5c0.276,0,0.5-0.224,0.5-0.5v-1c0-0.276-0.224-0.5-0.5-0.5h-5C24.224,29,24,29.224,24,29.5z"/><linearGradient id="bojF~LeMmSINCzJ6sI7Apc" x1="45" x2="45" y1="29" y2="39" gradientUnits="userSpaceOnUse" spreadMethod="reflect"><stop offset="0" stop-color="#6dc7ff"/><stop offset="1" stop-color="#e6abff"/></linearGradient><path fill="url(#bojF~LeMmSINCzJ6sI7Apc)" d="M47.5,39H44c-1.105,0-2-0.895-2-2v-7.5c0-0.276,0.224-0.5,0.5-0.5h1 c0.276,0,0.5,0.224,0.5,0.5v7c0,0.276,0.224,0.5,0.5,0.5h3c0.276,0,0.5,0.224,0.5,0.5v1C48,38.776,47.776,39,47.5,39z"/><linearGradient id="bojF~LeMmSINCzJ6sI7Apd" x1="36" x2="36" y1="29" y2="39" gradientUnits="userSpaceOnUse" spreadMethod="reflect"><stop offset="0" stop-color="#6dc7ff"/><stop offset="1" stop-color="#e6abff"/></linearGradient><path fill="url(#bojF~LeMmSINCzJ6sI7Apd)" d="M39.524,29.475l0.45,9C39.988,38.761,39.76,39,39.474,39H38.48 c-0.268,0-0.488-0.211-0.5-0.479L37.75,33l-1.173,2.155c-0.249,0.457-0.905,0.457-1.154,0L34.25,33l-0.23,5.521 C34.009,38.789,33.788,39,33.52,39h-0.995c-0.286,0-0.514-0.239-0.499-0.525l0.45-9C32.49,29.209,32.709,29,32.976,29h1.214 c0.19,0,0.363,0.108,0.448,0.278L36,32.024l1.362-2.746C37.447,29.108,37.62,29,37.81,29h1.214 C39.291,29,39.51,29.209,39.524,29.475z"/><linearGradient id="bojF~LeMmSINCzJ6sI7Ape" x1="19" x2="19" y1="29" y2="39" gradientUnits="userSpaceOnUse" spreadMethod="reflect"><stop offset="0" stop-color="#6dc7ff"/><stop offset="1" stop-color="#e6abff"/></linearGradient><path fill="url(#bojF~LeMmSINCzJ6sI7Ape)" d="M20,29.5V33h-2v-3.5c0-0.276-0.224-0.5-0.5-0.5h-1c-0.276,0-0.5,0.224-0.5,0.5v9 c0,0.276,0.224,0.5,0.5,0.5h1c0.276,0,0.5-0.224,0.5-0.5V35h2v3.5c0,0.276,0.224,0.5,0.5,0.5h1c0.276,0,0.5-0.224,0.5-0.5v-9 c0-0.276-0.224-0.5-0.5-0.5h-1C20.224,29,20,29.224,20,29.5z"/></svg>