<svg xmlns="http://www.w3.org/2000/svg"  viewBox="0 0 64 64" width="64px" height="64px"><linearGradient id="9eMIYOI4i~vG62IYBHR3la" x1="32" x2="32" y1="-1118" y2="-1166.507" gradientTransform="matrix(1 0 0 -1 0 -1110)" gradientUnits="userSpaceOnUse" spreadMethod="reflect"><stop offset="0" stop-color="#1a6dff"/><stop offset="1" stop-color="#c822ff"/></linearGradient><path fill="url(#9eMIYOI4i~vG62IYBHR3la)" d="M50,8H14c-2.757,0-5,2.243-5,5v38c0,2.757,2.243,5,5,5h36c2.757,0,5-2.243,5-5V13 C55,10.243,52.757,8,50,8z M53,51c0,1.654-1.346,3-3,3H14c-1.654,0-3-1.346-3-3V13c0-1.654,1.346-3,3-3h36c1.654,0,3,1.346,3,3V51z"/><linearGradient id="9eMIYOI4i~vG62IYBHR3lb" x1="27" x2="27" y1="27" y2="37" gradientUnits="userSpaceOnUse" spreadMethod="reflect"><stop offset="0" stop-color="#6dc7ff"/><stop offset="1" stop-color="#e6abff"/></linearGradient><path fill="url(#9eMIYOI4i~vG62IYBHR3lb)" d="M28,35h-2v-1.5c0-0.276-0.224-0.5-0.5-0.5h-1c-0.276,0-0.5,0.224-0.5,0.5V35 c0,1.105,0.895,2,2,2h2c1.105,0,2-0.895,2-2v-7.5c0-0.276-0.224-0.5-0.5-0.5h-1c-0.276,0-0.5,0.224-0.5,0.5V35z"/><linearGradient id="9eMIYOI4i~vG62IYBHR3lc" x1="35" x2="35" y1="27" y2="37" gradientUnits="userSpaceOnUse" spreadMethod="reflect"><stop offset="0" stop-color="#6dc7ff"/><stop offset="1" stop-color="#e6abff"/></linearGradient><path fill="url(#9eMIYOI4i~vG62IYBHR3lc)" d="M36,37h-3.5c-0.276,0-0.5-0.224-0.5-0.5v-1c0-0.276,0.224-0.5,0.5-0.5H36v-2h-2 c-1.105,0-2-0.895-2-2v-2c0-1.105,0.895-2,2-2h2.5c0.276,0,0.5,0.224,0.5,0.5v1c0,0.276-0.224,0.5-0.5,0.5H34v2h2 c1.105,0,2,0.895,2,2v2C38,36.105,37.105,37,36,37z"/></svg>