<svg xmlns="http://www.w3.org/2000/svg"  viewBox="0 0 50 50" width="50px" height="50px"><path d="M 25 2 C 12.309295 2 2 12.309295 2 25 C 2 37.690705 12.309295 48 25 48 C 37.690705 48 48 37.690705 48 25 C 48 12.309295 37.690705 2 25 2 z M 25 4 C 36.609824 4 46 13.390176 46 25 C 46 36.609824 36.609824 46 25 46 C 13.390176 46 4 36.609824 4 25 C 4 13.390176 13.390176 4 25 4 z M 17.814453 16 L 17.814453 34 L 20.060547 34 L 20.060547 25.804688 L 29.939453 25.804688 L 29.939453 34 L 32.183594 34 L 32.183594 16 L 29.939453 16 L 29.939453 23.783203 L 20.060547 23.783203 L 20.060547 16 L 17.814453 16 z"/></svg>