<svg xmlns="http://www.w3.org/2000/svg"  viewBox="0 0 64 64" width="64px" height="64px" fill-rule="evenodd" clip-rule="evenodd"><linearGradient id="SVGID_1_" x1="31.5" x2="31.5" y1="3.936" y2="56.164" gradientUnits="userSpaceOnUse"><stop offset="0" stop-color="#1a6dff"/><stop offset="1" stop-color="#c822ff"/></linearGradient><path fill="url(#SVGID_1_)" d="M58,51.3l-4.4-16.5l4-8c0.2-0.4,0.1-0.9-0.3-1.2L49,18.7c0,0,0,0,0,0V15c0-0.6-0.4-1-1-1h-1.9l-1.2-8.1	c-0.1-0.4-0.3-0.7-0.6-0.8s-0.7-0.1-1,0.2L37,10.8l-8.6-5.7c-0.3-0.2-0.6-0.2-0.9-0.1L8.7,12.9c-0.3,0.1-0.6,0.5-0.6,0.8L5,46.7	c0,0.4,0.2,0.8,0.5,1l17.5,10.2c0.2,0.1,0.3,0.1,0.5,0.1c0.3,0,0.6-0.1,0.8-0.4l3.1-3.7l13.9,3.9c0.1,0,0.2,0,0.3,0	c0.1,0,0.2,0,0.3-0.1l15.5-5.3C57.8,52.4,58.1,51.8,58,51.3z M55.4,26.7l-4.7,9.5L49,35.7V21.3L55.4,26.7z M16,47V16h31v31H16z M44.1,14h-7.6l1.2-1c0.1,0,0.1-0.1,0.2-0.2L43.2,8L44.1,14z M23.2,55.7L7.1,46.3l3-31.8l17.7-7.4l7.7,5.1L33.5,14c0,0,0,0,0,0H15	c-0.6,0-1,0.4-1,1v33c0,0.6,0.4,1,1,1h5.2l-0.4,1.9c-0.1,0.5,0.2,1,0.7,1.2l4.7,1.3L23.2,55.7z M41.4,55.9l-19.5-5.5l0.3-1.4H48	c0.6,0,1-0.4,1-1V37.7l2,0.6c0.1,0,0.2,0,0.3,0c0.4,0,0.7-0.2,0.9-0.6l0.1-0.2l3.5,13.4L41.4,55.9z"/><linearGradient id="SVGID_2_" x1="25.5" x2="25.5" y1="39.851" y2="44.025" gradientUnits="userSpaceOnUse"><stop offset="0" stop-color="#6dc7ff"/><stop offset="1" stop-color="#e6abff"/></linearGradient><path fill="url(#SVGID_2_)" fill-rule="evenodd" d="M20,40h11c0.6,0,1,0.4,1,1v2c0,0.6-0.4,1-1,1H20	c-0.6,0-1-0.4-1-1v-2C19,40.4,19.4,40,20,40z" clip-rule="evenodd"/><linearGradient id="SVGID_3_" x1="23.5" x2="23.5" y1="18.489" y2="32.399" gradientUnits="userSpaceOnUse"><stop offset="0" stop-color="#6dc7ff"/><stop offset="1" stop-color="#e6abff"/></linearGradient><path fill="url(#SVGID_3_)" d="M25.2,19h-3.4c-1.5,0-2.8,1.3-2.8,2.8v10.5c0,0.4,0.3,0.7,0.7,0.7h1.6c0.4,0,0.7-0.3,0.7-0.7V29h3.2 c1.5,0,2.8-1.3,2.8-2.8v-4.4C28,20.3,26.7,19,25.2,19z M25,25.3c0,0.4-0.3,0.7-0.7,0.7h-1.6c-0.4,0-0.7-0.3-0.7-0.7v-2.6 c0-0.4,0.3-0.7,0.7-0.7h1.6c0.4,0,0.7,0.3,0.7,0.7V25.3z"/><linearGradient id="SVGID_4_" x1="34.5" x2="34.5" y1="18.489" y2="32.399" gradientUnits="userSpaceOnUse"><stop offset="0" stop-color="#6dc7ff"/><stop offset="1" stop-color="#e6abff"/></linearGradient><path fill="url(#SVGID_4_)" d="M38.3,22c0.4,0,0.7-0.3,0.7-0.7v-1.6c0-0.4-0.3-0.7-0.7-0.7h-5.5c-1.5,0-2.8,1.3-2.8,2.8v8.4 c0,1.5,1.3,2.8,2.8,2.8h5.5c0.4,0,0.7-0.3,0.7-0.7v-1.6c0-0.4-0.3-0.7-0.7-0.7H33v-8H38.3z"/></svg>