<svg xmlns="http://www.w3.org/2000/svg"  viewBox="0 0 64 64" width="64px" height="64px"><linearGradient id="B80B5xU2OXmvZm4cNKBhNa" x1="32" x2="32" y1="1402" y2="1353.493" gradientTransform="matrix(1 0 0 -1 0 1410)" gradientUnits="userSpaceOnUse" spreadMethod="reflect"><stop offset="0" stop-color="#1a6dff"/><stop offset="1" stop-color="#c822ff"/></linearGradient><path fill="url(#B80B5xU2OXmvZm4cNKBhNa)" d="M50,8H14c-2.757,0-5,2.243-5,5v38c0,2.757,2.243,5,5,5h36c2.757,0,5-2.243,5-5V13 C55,10.243,52.757,8,50,8z M53,51c0,1.654-1.346,3-3,3H14c-1.654,0-3-1.346-3-3V13c0-1.654,1.346-3,3-3h36c1.654,0,3,1.346,3,3V51z"/><linearGradient id="B80B5xU2OXmvZm4cNKBhNb" x1="41" x2="41" y1="27" y2="37" gradientUnits="userSpaceOnUse" spreadMethod="reflect"><stop offset="0" stop-color="#6dc7ff"/><stop offset="1" stop-color="#e6abff"/></linearGradient><path fill="url(#B80B5xU2OXmvZm4cNKBhNb)" d="M43.5,37H40c-1.105,0-2-0.895-2-2v-7.5c0-0.276,0.224-0.5,0.5-0.5h1 c0.276,0,0.5,0.224,0.5,0.5v7c0,0.276,0.224,0.5,0.5,0.5h3c0.276,0,0.5,0.224,0.5,0.5v1C44,36.776,43.776,37,43.5,37z"/><linearGradient id="B80B5xU2OXmvZm4cNKBhNc" x1="24" x2="24" y1="27" y2="37" gradientUnits="userSpaceOnUse" spreadMethod="reflect"><stop offset="0" stop-color="#6dc7ff"/><stop offset="1" stop-color="#e6abff"/></linearGradient><path fill="url(#B80B5xU2OXmvZm4cNKBhNc)" d="M25,37h-3.5c-0.276,0-0.5-0.224-0.5-0.5v-1c0-0.276,0.224-0.5,0.5-0.5H25v-2h-2 c-1.105,0-2-0.895-2-2v-2c0-1.105,0.895-2,2-2h2.5c0.276,0,0.5,0.224,0.5,0.5v1c0,0.276-0.224,0.5-0.5,0.5H23v2h2 c1.105,0,2,0.895,2,2v2C27,36.105,26.105,37,25,37z"/><linearGradient id="B80B5xU2OXmvZm4cNKBhNd" x1="32.262" x2="32.262" y1="27" y2="38" gradientUnits="userSpaceOnUse" spreadMethod="reflect"><stop offset="0" stop-color="#6dc7ff"/><stop offset="1" stop-color="#e6abff"/></linearGradient><path fill="url(#B80B5xU2OXmvZm4cNKBhNd)" d="M35.422,37.198l-0.99-1.302c0.35-0.36,0.568-0.85,0.568-1.391V29c0-1.105-0.895-2-2-2h-2 c-1.105,0-2,0.895-2,2v6c0,1.105,0.895,2,2,2h1.766l0.54,0.706C33.448,37.891,33.668,38,33.902,38h1.122 C35.437,38,35.672,37.527,35.422,37.198z M31,34.5v-5c0-0.276,0.224-0.5,0.5-0.5h1c0.276,0,0.5,0.224,0.5,0.5v5 c0,0.276-0.224,0.5-0.5,0.5h-1C31.224,35,31,34.776,31,34.5z"/></svg>